<?xml version="1.0" encoding="UTF-8"?>
<svg width="37px" height="36px" viewBox="0 0 37 36" version="1.1" xmlns="http://www.w3.org/2000/svg" xmlns:xlink="http://www.w3.org/1999/xlink">
    <!-- Generator: Sketch 56.2 (81672) - https://sketch.com -->
    <title>Rectangle</title>
    <desc>Created with Sketch.</desc>
    <defs>
        <path d="M19.8733832,1.60638033 L23.9286332,9.94246729 C24.2106332,10.5222499 24.7558832,10.923989 25.3866332,11.0168151 L34.4548832,12.3536629 C36.0433832,12.5880108 36.6771332,14.5677934 35.5281332,15.7037716 L28.9663832,22.1924673 C28.5103832,22.6436629 28.3018832,23.2942064 28.4098832,23.9310542 L29.9586332,33.0934455 C30.2301332,34.6981195 28.5696332,35.9215977 27.1491332,35.1645325 L19.0386332,30.838989 C18.4746332,30.5384455 17.8003832,30.5384455 17.2363832,30.838989 L9.12588317,35.1645325 C7.70538317,35.9223586 6.04488317,34.6981195 6.31638317,33.0934455 L7.86513317,23.9310542 C7.97313317,23.2942064 7.76463317,22.6436629 7.30863317,22.1924673 L0.746883172,15.7037716 C-0.402116828,14.5670325 0.231633172,12.5872499 1.82013317,12.3536629 L10.8883832,11.0168151 C11.5191332,10.923989 12.0643832,10.5222499 12.3463832,9.94246729 L16.4016332,1.60638033 C17.1111332,0.146271634 19.1631332,0.146271634 19.8733832,1.60638033 Z" id="path-1"></path>
    </defs>
    <g id="Page-1" stroke="none" stroke-width="1" fill="none" fill-rule="evenodd">
        <g id="Stars" transform="translate(-427.000000, -316.000000)">
            <g id="Group" transform="translate(285.000000, 315.000000)">
                <g id="star-copy-3" transform="translate(141.159633, 0.475728)">
                    <g id="Rectangle" transform="translate(0.840367, 0.524272)">
                        <mask id="mask-2" fill="white">
                            <use xlink:href="#path-1"></use>
                        </mask>
                        <use id="Mask" fill="#E9E9E9" fill-rule="nonzero" xlink:href="#path-1"></use>
                        <rect fill="#F86834" mask="url(#mask-2)" x="-3" y="-5" width="21" height="49"></rect>
                    </g>
                </g>
            </g>
        </g>
    </g>
</svg>