<?xml version="1.0" encoding="UTF-8"?>
<svg width="37px" height="36px" viewBox="0 0 37 36" version="1.1" xmlns="http://www.w3.org/2000/svg" xmlns:xlink="http://www.w3.org/1999/xlink">
    <!-- Generator: Sketch 56.2 (81672) - https://sketch.com -->
    <title>Path</title>
    <desc>Created with Sketch.</desc>
    <g id="Page-1" stroke="none" stroke-width="1" fill="none" fill-rule="evenodd">
        <g id="Stars" transform="translate(-474.000000, -316.000000)" fill="#E9E9E9" fill-rule="nonzero">
            <g id="Group" transform="translate(285.000000, 315.000000)">
                <g id="star-copy-4" transform="translate(189.159633, 1.475728)">
                    <path d="M19.71375,1.13065217 L23.769,9.46673913 C24.051,10.0465217 24.59625,10.4482609 25.227,10.541087 L34.29525,11.8779348 C35.88375,12.1122826 36.5175,14.0920652 35.3685,15.2280435 L28.80675,21.7167391 C28.35075,22.1679348 28.14225,22.8184783 28.25025,23.4553261 L29.799,32.6177174 C30.0705,34.2223913 28.41,35.4458696 26.9895,34.6888043 L18.879,30.3632609 C18.315,30.0627174 17.64075,30.0627174 17.07675,30.3632609 L8.96625,34.6888043 C7.54575,35.4466304 5.88525,34.2223913 6.15675,32.6177174 L7.7055,23.4553261 C7.8135,22.8184783 7.605,22.1679348 7.149,21.7167391 L0.58725,15.2280435 C-0.56175,14.0913043 0.072,12.1115217 1.6605,11.8779348 L10.72875,10.541087 C11.3595,10.4482609 11.90475,10.0465217 12.18675,9.46673913 L16.242,1.13065217 C16.9515,-0.329456522 19.0035,-0.329456522 19.71375,1.13065217 Z" id="Path"></path>
                </g>
            </g>
        </g>
    </g>
</svg>