<?xml version="1.0" encoding="UTF-8"?>
<svg width="20px" height="12px" viewBox="0 0 20 12" version="1.1" xmlns="http://www.w3.org/2000/svg" xmlns:xlink="http://www.w3.org/1999/xlink">
    <!-- Generator: Sketch 56.2 (81672) - https://sketch.com -->
    <title>Shape</title>
    <desc>Created with Sketch.</desc>
    <g id="Symbols" stroke="none" stroke-width="1" fill="none" fill-rule="evenodd">
        <g id="views" transform="translate(0.000000, -4.000000)" fill="#FFFFFF" fill-rule="nonzero">
            <g id="Group-3">
                <g id="eye" transform="translate(0.000000, 4.000000)">
                    <path d="M10.0105802,0 C6.18532423,0 2.71638225,2.09283276 0.15665529,5.49215017 C-0.05221843,5.77064846 -0.05221843,6.15972696 0.15665529,6.43822526 C2.71638225,9.84163823 6.18532423,11.934471 10.0105802,11.934471 C13.8358362,11.934471 17.3047782,9.84163823 19.8645051,6.44232082 C20.0733788,6.16382253 20.0733788,5.77474403 19.8645051,5.49624573 C17.3047782,2.09283276 13.8358362,0 10.0105802,0 Z M10.2849829,10.1692833 C7.74573379,10.3290102 5.64880546,8.23617747 5.80853242,5.69283276 C5.93959044,3.59590444 7.63924915,1.89624573 9.73617747,1.76518771 C12.2754266,1.60546075 14.3723549,3.69829352 14.212628,6.24163823 C14.0774744,8.33447099 12.3778157,10.0341297 10.2849829,10.1692833 Z M10.1580205,8.22798635 C8.79010239,8.31399317 7.65972696,7.18771331 7.74982935,5.81979522 C7.81945392,4.6894198 8.73686007,3.77610922 9.86723549,3.70238908 C11.2351536,3.61638225 12.365529,4.74266212 12.2754266,6.1105802 C12.2017065,7.24505119 11.2843003,8.15836177 10.1580205,8.22798635 Z" id="Shape"></path>
                </g>
            </g>
        </g>
    </g>
</svg>