<?xml version="1.0" encoding="UTF-8"?>
<svg width="130px" height="23px" viewBox="0 0 130 23" version="1.1" xmlns="http://www.w3.org/2000/svg" xmlns:xlink="http://www.w3.org/1999/xlink">
    <!-- Generator: Sketch 56.2 (81672) - https://sketch.com -->
    <title>logo</title>
    <desc>Created with Sketch.</desc>
    <g id="Page-1" stroke="none" stroke-width="1" fill="none" fill-rule="evenodd">
        <g id="Home-page" transform="translate(-113.000000, -15.000000)">
            <g id="logo" transform="translate(113.000000, 15.000000)">
                <rect id="Rectangle" fill="#8DD2F3" x="24" y="0" width="5" height="23" rx="2.5"></rect>
                <rect id="Rectangle-Copy" fill="#8DD2F3" x="18" y="1" width="5" height="22" rx="2.5"></rect>
                <rect id="Rectangle-Copy-2" fill="#8DD2F3" x="12" y="2" width="5" height="21" rx="2.5"></rect>
                <rect id="Rectangle-Copy-3" fill="#8DD2F3" x="6" y="5" width="5" height="18" rx="2.5"></rect>
                <rect id="Rectangle-Copy-4" fill="#8DD2F3" x="0" y="8" width="5" height="15" rx="2.5"></rect>
                <path d="M45.3671875,17.3632812 L40.7441406,17.3632812 L39.8652344,20 L37.0615234,20 L41.8251953,7.203125 L44.2685547,7.203125 L49.0585938,20 L46.2548828,20 L45.3671875,17.3632812 Z M41.4560547,15.2275391 L44.6552734,15.2275391 L43.046875,10.4375 L41.4560547,15.2275391 Z M52.4248047,10.4902344 L52.5039062,11.5888672 C53.1835971,10.7392536 54.0947208,10.3144531 55.2373047,10.3144531 C56.2451222,10.3144531 56.9951147,10.6103486 57.4873047,11.2021484 C57.9794946,11.7939483 58.2314453,12.678705 58.2431641,13.8564453 L58.2431641,20 L55.703125,20 L55.703125,13.9179688 C55.703125,13.3789036 55.5859387,12.9877942 55.3515625,12.7446289 C55.1171863,12.5014636 54.7275418,12.3798828 54.1826172,12.3798828 C53.4677699,12.3798828 52.9316424,12.6845673 52.5742188,13.2939453 L52.5742188,20 L50.0341797,20 L50.0341797,10.4902344 L52.4248047,10.4902344 Z M59.7724609,15.1748047 C59.7724609,13.6923754 60.1049771,12.5117231 60.7700195,11.6328125 C61.4350619,10.7539019 62.3447208,10.3144531 63.4990234,10.3144531 C64.4248093,10.3144531 65.1894501,10.6601528 65.7929688,11.3515625 L65.7929688,6.5 L68.3417969,6.5 L68.3417969,20 L66.0478516,20 L65.9248047,18.9892578 C65.291989,19.7802774 64.477544,20.1757812 63.4814453,20.1757812 C62.3622991,20.1757812 61.4643589,19.7348677 60.7875977,18.8530273 C60.1108365,17.971187 59.7724609,16.745125 59.7724609,15.1748047 Z M62.3125,15.359375 C62.3125,16.2500045 62.4677719,16.9326148 62.7783203,17.4072266 C63.0888687,17.8818383 63.5400361,18.1191406 64.1318359,18.1191406 C64.9169961,18.1191406 65.4707015,17.7880892 65.7929688,17.1259766 L65.7929688,13.3730469 C65.4765609,12.7109342 64.9287148,12.3798828 64.1494141,12.3798828 C62.9247986,12.3798828 62.3125,13.3730369 62.3125,15.359375 Z M75.6542969,12.8720703 C75.308592,12.8251951 75.0039076,12.8017578 74.7402344,12.8017578 C73.7792921,12.8017578 73.1494156,13.1269499 72.8505859,13.7773438 L72.8505859,20 L70.3105469,20 L70.3105469,10.4902344 L72.7099609,10.4902344 L72.7802734,11.6240234 C73.2900416,10.7509722 73.9960892,10.3144531 74.8984375,10.3144531 C75.1796889,10.3144531 75.4433581,10.3525387 75.6894531,10.4287109 L75.6542969,12.8720703 Z M76.4804688,15.1572266 C76.4804688,14.2138625 76.6621076,13.3730506 77.0253906,12.6347656 C77.3886737,11.8964807 77.9116177,11.3251973 78.5942383,10.9208984 C79.2768589,10.5165995 80.0693314,10.3144531 80.9716797,10.3144531 C82.2548892,10.3144531 83.302242,10.7070273 84.1137695,11.4921875 C84.925297,12.2773477 85.3779292,13.3437433 85.4716797,14.6914062 L85.4892578,15.3417969 C85.4892578,16.8007885 85.0820353,17.971187 84.2675781,18.8530273 C83.4531209,19.7348677 82.3603584,20.1757812 80.9892578,20.1757812 C79.6181572,20.1757812 78.5239299,19.7363325 77.706543,18.8574219 C76.8891561,17.9785112 76.4804688,16.7832107 76.4804688,15.2714844 L76.4804688,15.1572266 Z M79.0205078,15.3417969 C79.0205078,16.2441451 79.190428,16.9340796 79.5302734,17.4116211 C79.8701189,17.8891625 80.3564421,18.1279297 80.9892578,18.1279297 C81.6044953,18.1279297 82.0849592,17.8920922 82.4306641,17.4204102 C82.7763689,16.9487281 82.9492188,16.1943411 82.9492188,15.1572266 C82.9492188,14.2724565 82.7763689,13.5869165 82.4306641,13.1005859 C82.0849592,12.6142554 81.5986359,12.3710938 80.9716797,12.3710938 C80.3505828,12.3710938 79.8701189,12.6127906 79.5302734,13.0961914 C79.190428,13.5795923 79.0205078,14.3281199 79.0205078,15.3417969 Z M89.734375,20 L87.1855469,20 L87.1855469,10.4902344 L89.734375,10.4902344 L89.734375,20 Z M87.0361328,8.02929688 C87.0361328,7.6484356 87.1635729,7.33496217 87.418457,7.08886719 C87.6733411,6.84277221 88.0205056,6.71972656 88.4599609,6.71972656 C88.8935569,6.71972656 89.2392565,6.84277221 89.4970703,7.08886719 C89.7548841,7.33496217 89.8837891,7.6484356 89.8837891,8.02929688 C89.8837891,8.41601756 89.7534193,8.73242064 89.4926758,8.97851562 C89.2319323,9.22461061 88.8876975,9.34765625 88.4599609,9.34765625 C88.0322244,9.34765625 87.6879896,9.22461061 87.4272461,8.97851562 C87.1665026,8.73242064 87.0361328,8.41601756 87.0361328,8.02929688 Z M91.4306641,15.1748047 C91.4306641,13.6923754 91.7631803,12.5117231 92.4282227,11.6328125 C93.093265,10.7539019 94.0029239,10.3144531 95.1572266,10.3144531 C96.0830124,10.3144531 96.8476532,10.6601528 97.4511719,11.3515625 L97.4511719,6.5 L100,6.5 L100,20 L97.7060547,20 L97.5830078,18.9892578 C96.9501921,19.7802774 96.1357472,20.1757812 95.1396484,20.1757812 C94.0205022,20.1757812 93.122562,19.7348677 92.4458008,18.8530273 C91.7690396,17.971187 91.4306641,16.745125 91.4306641,15.1748047 Z M93.9707031,15.359375 C93.9707031,16.2500045 94.125975,16.9326148 94.4365234,17.4072266 C94.7470719,17.8818383 95.1982392,18.1191406 95.7900391,18.1191406 C96.5751992,18.1191406 97.1289046,17.7880892 97.4511719,17.1259766 L97.4511719,13.3730469 C97.134764,12.7109342 96.586918,12.3798828 95.8076172,12.3798828 C94.5830017,12.3798828 93.9707031,13.3730369 93.9707031,15.359375 Z M112.647461,13.8916016 C112.647461,15.1513735 112.424807,16.2558546 111.979492,17.2050781 C111.534177,18.1543016 110.896977,18.8867162 110.067871,19.4023438 C109.238765,19.9179713 108.288091,20.1757812 107.21582,20.1757812 C106.155268,20.1757812 105.208989,19.920901 104.376953,19.4111328 C103.544918,18.9013646 102.900393,18.1733446 102.443359,17.2270508 C101.986326,16.280757 101.754883,15.192389 101.749023,13.9619141 L101.749023,13.3291016 C101.749023,12.0693296 101.976072,10.960454 102.430176,10.0024414 C102.88428,9.0444288 103.525875,8.30908459 104.35498,7.79638672 C105.184086,7.28368884 106.131831,7.02734375 107.198242,7.02734375 C108.264654,7.02734375 109.212398,7.28368884 110.041504,7.79638672 C110.87061,8.30908459 111.512205,9.0444288 111.966309,10.0024414 C112.420412,10.960454 112.647461,12.0664 112.647461,13.3203125 L112.647461,13.8916016 Z M109.975586,13.3115234 C109.975586,11.9697199 109.735354,10.9501988 109.254883,10.2529297 C108.774412,9.55566058 108.088872,9.20703125 107.198242,9.20703125 C106.313472,9.20703125 105.630862,9.55126609 105.150391,10.2397461 C104.669919,10.9282261 104.426758,11.9374933 104.420898,13.2675781 L104.420898,13.8916016 C104.420898,15.1982487 104.66113,16.2119105 105.141602,16.9326172 C105.622073,17.6533239 106.313472,18.0136719 107.21582,18.0136719 C108.10059,18.0136719 108.780271,17.6665074 109.254883,16.972168 C109.729495,16.2778286 109.969727,15.2656317 109.975586,13.9355469 L109.975586,13.3115234 Z M120.091797,19.0332031 C119.464841,19.7949257 118.597662,20.1757812 117.490234,20.1757812 C116.470698,20.1757812 115.692874,19.8828154 115.156738,19.296875 C114.620603,18.7109346 114.34668,17.8525447 114.334961,16.7216797 L114.334961,10.4902344 L116.875,10.4902344 L116.875,16.6337891 C116.875,17.6240284 117.326167,18.1191406 118.228516,18.1191406 C119.089848,18.1191406 119.681639,17.8203155 120.003906,17.2226562 L120.003906,10.4902344 L122.552734,10.4902344 L122.552734,20 L120.162109,20 L120.091797,19.0332031 Z M127.509766,8.15234375 L127.509766,10.4902344 L129.135742,10.4902344 L129.135742,12.3535156 L127.509766,12.3535156 L127.509766,17.0996094 C127.509766,17.4511736 127.577148,17.7031242 127.711914,17.8554688 C127.84668,18.0078133 128.10449,18.0839844 128.485352,18.0839844 C128.766603,18.0839844 129.015624,18.0634768 129.232422,18.0224609 L129.232422,19.9472656 C128.734373,20.0996101 128.221682,20.1757812 127.694336,20.1757812 C125.913077,20.1757812 125.004883,19.2763762 124.969727,17.4775391 L124.969727,12.3535156 L123.581055,12.3535156 L123.581055,10.4902344 L124.969727,10.4902344 L124.969727,8.15234375 L127.509766,8.15234375 Z" id="AndroidOut" fill="#FFFFFF" fill-rule="nonzero"></path>
            </g>
        </g>
    </g>
</svg>