<?xml version="1.0" encoding="UTF-8"?>
<svg width="14px" height="14px" viewBox="0 0 14 14" version="1.1" xmlns="http://www.w3.org/2000/svg" xmlns:xlink="http://www.w3.org/1999/xlink">
    <!-- Generator: Sketch 56.2 (81672) - https://sketch.com -->
    <title>Shape</title>
    <desc>Created with Sketch.</desc>
    <g id="Page-1" stroke="none" stroke-width="1" fill="none" fill-rule="evenodd">
        <g id="Home-page" transform="translate(-1043.000000, -21.000000)" fill="#9A9A9A" fill-rule="nonzero">
            <g id="navigation" transform="translate(274.000000, 7.000000)">
                <g id="magnifying-glass-(1)" transform="translate(769.000000, 14.000000)">
                    <path d="M13.6624706,12.1425294 L10.7822059,9.26238235 C11.4763235,8.26038235 11.8235588,7.14335294 11.8235588,5.91188235 C11.8235588,5.11135294 11.6681471,4.34573529 11.3573235,3.61520588 C11.0467059,2.88455882 10.6267941,2.25479412 10.0977647,1.72576471 C9.56873529,1.19673529 8.93905882,0.776823529 8.20855882,0.466176471 C7.47782353,0.155441176 6.71226471,8.82352941e-05 5.91173529,8.82352941e-05 C5.11126471,8.82352941e-05 4.34564706,0.155441176 3.61511765,0.466176471 C2.88447059,0.776823529 2.25470588,1.19673529 1.72567647,1.72576471 C1.19658824,2.25479412 0.776735294,2.88467647 0.466058824,3.61520588 C0.155352941,4.34582353 0,5.11135294 0,5.91188235 C0,6.71235294 0.155352941,7.47770588 0.466058824,8.20844118 C0.776705882,8.93897059 1.19658824,9.56864706 1.72567647,10.0976765 C2.25470588,10.6268824 2.88458824,11.0466176 3.61511765,11.3574412 C4.34573529,11.6681176 5.11126471,11.8234412 5.91173529,11.8234412 C7.14347059,11.8234412 8.26032353,11.4761765 9.26238235,10.7821176 L12.1426471,13.6539118 C12.3441765,13.8665882 12.5957647,13.973 12.8983235,13.973 C13.1894118,13.973 13.4414706,13.8666176 13.6540294,13.6539118 C13.8666765,13.4412647 13.9730883,13.1893235 13.9730883,12.8982353 C13.9730883,12.6017059 13.8696176,12.3496765 13.6624706,12.1425294 Z M8.5695,8.56935294 C7.83335294,9.30561765 6.9475,9.67373529 5.91173529,9.67373529 C4.87614706,9.67373529 3.99029412,9.30552941 3.25408824,8.56935294 C2.51788235,7.83320588 2.14979412,6.94747059 2.14979412,5.91170588 C2.14979412,4.87611765 2.51797059,3.99011765 3.25408824,3.25405882 C3.99014706,2.51782353 4.87614706,2.14976471 5.91173529,2.14976471 C6.94738235,2.14976471 7.83323529,2.51797059 8.5695,3.25405882 C9.30576471,3.99011765 9.67385294,4.87611765 9.67385294,5.91170588 C9.67385294,6.94747059 9.30564706,7.83320588 8.5695,8.56935294 Z" id="Shape"></path>
                </g>
            </g>
        </g>
    </g>
</svg>