<?xml version="1.0" encoding="UTF-8"?>
<svg width="23px" height="24px" viewBox="0 0 23 24" version="1.1" xmlns="http://www.w3.org/2000/svg" xmlns:xlink="http://www.w3.org/1999/xlink">
    <!-- Generator: Sketch 56.2 (81672) - https://sketch.com -->
    <title>download</title>
    <desc>Created with Sketch.</desc>
    <g id="Page-1" stroke="none" stroke-width="1" fill="none" fill-rule="evenodd">
        <g id="Stars" transform="translate(-355.000000, -871.000000)" fill="#000000" fill-rule="nonzero">
            <g id="download" transform="translate(355.000000, 871.000000)">
                <path fill="#ffffff" d="M17.9326789,10.9395 C17.811178,10.671 17.544176,10.5 17.2501739,10.5 L14.2501521,10.5 L14.2501521,0.75 C14.2501521,0.336 13.9141496,0 13.5001466,0 L10.5001247,0 C10.0861217,0 9.75011928,0.336 9.75011928,0.75 L9.75011928,10.5 L6.75009743,10.5 C6.45609528,10.5 6.18909334,10.6725 6.06759245,10.9395 C5.94459156,11.208 5.99259191,11.5215 6.18609332,11.7435 L11.4361316,17.7435 C11.5786326,17.907 11.7841341,18 12.0001357,18 C12.2161372,18 12.4216387,17.9055 12.5641398,17.7435 L17.814178,11.7435 C18.0091794,11.523 18.0541798,11.208 17.9326789,10.9395 Z" id="Path"></path>
                <path fill="#ffffff" d="M19.9333333,17 L19.9333333,21.2 L3.06666667,21.2 L3.06666667,17 L0,17 L0,22.6 C0,23.3742 0.686933333,24 1.53333333,24 L21.4666667,24 C22.3146,24 23,23.3742 23,22.6 L23,17 L19.9333333,17 Z" id="Path"></path>
            </g>
        </g>
    </g>
</svg>