<?xml version="1.0" encoding="UTF-8"?>
<svg width="24px" height="24px" viewBox="0 0 24 24" version="1.1" xmlns="http://www.w3.org/2000/svg" xmlns:xlink="http://www.w3.org/1999/xlink">
    <!-- Generator: Sketch 58 (84663) - https://sketch.com -->
    <title>icon</title>
    <desc>Created with Sketch.</desc>
    <g id="Page-1" stroke="none" stroke-width="1" fill="none" fill-rule="evenodd">
        <g id="A---02---What-is-Podcast" transform="translate(-855.000000, -1274.000000)">
            <g id="what" transform="translate(155.000000, 827.000000)">
                <g id="icon" transform="translate(700.000000, 447.000000)">
                    <rect id="bound" fill="none" x="0" y="0" width="24" height="24"></rect>
                    <rect id="Rectangle-62-Copy" fill="#28282A" x="12" y="4" width="3" height="13" rx="1.5"></rect>
                    <rect id="Rectangle-62-Copy-2" fill="#28282A" x="7" y="9" width="3" height="8" rx="1.5"></rect>
                    <path d="M5,19 L20,19 C20.5522847,19 21,19.4477153 21,20 C21,20.5522847 20.5522847,21 20,21 L4,21 C3.44771525,21 3,20.5522847 3,20 L3,4 C3,3.44771525 3.44771525,3 4,3 C4.55228475,3 5,3.44771525 5,4 L5,19 Z" id="Path-95" fill="#28282A"></path>
                    <rect id="Rectangle-62-Copy-4" fill="#28282A" x="17" y="11" width="3" height="6" rx="1.5"></rect>
                </g>
            </g>
        </g>
    </g>
</svg>