<?xml version="1.0" encoding="UTF-8"?>
<svg width="24px" height="24px" viewBox="0 0 24 24" version="1.1" xmlns="http://www.w3.org/2000/svg" xmlns:xlink="http://www.w3.org/1999/xlink">
    <!-- Generator: Sketch 58 (84663) - https://sketch.com -->
    <title>icon</title>
    <desc>Created with Sketch.</desc>
    <g id="Page-1" stroke="none" stroke-width="1" fill="none" fill-rule="evenodd">
        <g id="A---02---What-is-Podcast" transform="translate(-855.000000, -1188.000000)">
            <g id="what" transform="translate(155.000000, 827.000000)">
                <g id="icon" transform="translate(700.000000, 361.000000)">
                    <rect id="bound" fill="none" x="0" y="0" width="24" height="24"></rect>
                    <path d="M13.8181818,4 C15.1706432,4 15.9316395,4.70185573 15.9956073,6.00000364 L9,6 C7.34314575,6 6,7.34314575 6,9 L6,9 L6.00000364,15.9956073 C4.70185573,15.9316395 4,15.1706432 4,13.8181818 L4,6.18181818 C4,4.76751186 4.76751186,4 6.18181818,4 L13.8181818,4 Z" id="Combined-Shape" fill="#28282A"></path>
                    <path d="M10.1818182,8 L17.8181818,8 C19.2324881,8 20,8.76751186 20,10.1818182 L20,17.8181818 C20,19.2324881 19.2324881,20 17.8181818,20 L10.1818182,20 C8.76751186,20 8,19.2324881 8,17.8181818 L8,10.1818182 C8,8.76751186 8.76751186,8 10.1818182,8 Z" id="Rectangle-19-Copy-3" fill="#28282A"></path>
                </g>
            </g>
        </g>
    </g>
</svg>