<svg width="20" height="20" viewBox="0 0 20 20" xmlns="http://www.w3.org/2000/svg"><title>Resize Plus #1 Icon</title><path d="M18.75 7.527c-.69 0-1.25-.56-1.25-1.251V4.275l-4.113 4.117a1.28 1.28 0 0 1-1.795 0 1.244 1.244 0 0 1 0-1.772l4.102-4.107H13.73a1.256 1.256 0 0 1 0-2.513h3.77A2.5 2.5 0 0 1 20 2.49v3.777a1.251 1.251 0 0 1-1.25 1.26zm-14.449 9.96H6.25a1.256 1.256 0 0 1 0 2.513H2.5A2.5 2.5 0 0 1 0 17.499V13.72a1.25 1.25 0 1 1 2.5 0v2.002l4.094-4.118a1.268 1.268 0 0 1 1.786 0 1.251 1.251 0 0 1 0 1.773l-4.079 4.11z" fill="#28282A" fill-rule="evenodd"/></svg>