<svg width="48" height="24" viewBox="0 0 48 24" xmlns="http://www.w3.org/2000/svg"><title>Signal Icon</title><path d="M43.317 23.408a2 2 0 0 1-2.84 0 2.032 2.032 0 0 1 0-2.853c4.7-4.735 4.7-12.377 0-17.112a2.03 2.03 0 0 1 0-2.851 2 2 0 0 1 2.84 0c6.24 6.324 6.24 16.492 0 22.816zm-8.24-4.278a2 2 0 0 1-2.84 0 2.032 2.032 0 0 1 0-2.853 6.09 6.09 0 0 0 0-8.556 2.03 2.03 0 0 1 0-2.851 2 2 0 0 1 2.84 0c3.9 3.953 3.9 10.307 0 14.26zm-11.08-3.097a4.035 4.035 0 0 1-2.894-6.875A4.03 4.03 0 0 1 27.996 12a4.023 4.023 0 0 1-4 4.034zm-8.242.244c.782.79.782 2.063 0 2.853a2 2 0 0 1-2.83 0c-3.904-3.951-3.904-10.309 0-14.26a2 2 0 0 1 2.83 0c.782.79.782 2.062 0 2.851a6.085 6.085 0 0 0 0 8.556zM7.51 20.555c.782.79.782 2.063 0 2.853a2 2 0 0 1-2.828 0c-6.244-6.32-6.244-16.49 0-22.81a1.988 1.988 0 0 1 2.828 0c.782.79.782 2.062 0 2.851-4.682 4.74-4.682 12.366 0 17.106z" fill="#FFF" fill-rule="evenodd"/></svg>