<svg width="20" height="20" viewBox="0 0 20 20" xmlns="http://www.w3.org/2000/svg"><title>Share #2 Icon</title><path d="M17.502 4.253L17.5 7.5a1.25 1.25 0 1 0 2.5 0V2.492A2.494 2.494 0 0 0 17.504 0H12.5a1.25 1.25 0 1 0 0 2.5h3.204L9.122 9.086a1.235 1.235 0 0 0 0 1.764 1.273 1.273 0 0 0 1.786 0l6.594-6.597zM17.5 17.508L2.503 17.5C2.5 17.5 2.5 2.492 2.5 2.492c0 .01 4.987.008 4.987.008a1.25 1.25 0 0 0 0-2.5H2.495A2.499 2.499 0 0 0 0 2.492v15.016A2.498 2.498 0 0 0 2.503 20h14.994A2.49 2.49 0 0 0 20 17.508V12.5a1.25 1.25 0 1 0-2.5 0v5.008z" fill="#28282A" fill-rule="nonzero"/></svg>