<svg width="22" height="20" viewBox="0 0 22 20" xmlns="http://www.w3.org/2000/svg"><title>Combined Shape</title><path d="M12.571 6.953c1.736 0 3.143 1.363 3.143 3.045s-1.407 3.046-3.143 3.046v6.098c0 .837-.557 1.11-1.256.602l-5.03-3.655H3.144C1.407 16.09 0 14.727 0 13.047V6.95c0-1.68 1.41-3.043 3.143-3.043h3.143L11.315.253c.694-.505 1.256-.229 1.256.602v6.098zm6.179 10.286c-.635.574-1.63.54-2.221-.075a1.49 1.49 0 0 1 .078-2.152c1.427-1.29 2.25-3.086 2.25-5.014 0-1.898-.798-3.669-2.187-4.955a1.49 1.49 0 0 1-.05-2.153c.599-.608 1.594-.63 2.221-.049C20.844 4.696 22 7.26 22 9.998c0 2.782-1.192 5.382-3.25 7.241z" fill="#28282A" fill-rule="evenodd"/></svg>